<svg width="45" height="45" viewBox="0 0 45 45" fill="none" xmlns="http://www.w3.org/2000/svg">
<path d="M22.91 45C18.7756 45 15 44.0347 11.5831 42.1042C8.16629 40.1737 5.3303 37.4317 3.07517 33.8781V40.8485H0V28.5991H12.1982V31.6743H5.3303C7.2779 34.9203 9.78929 37.4402 12.8645 39.2341C15.9396 41.0279 19.2882 41.9248 22.91 41.9248C27.0444 41.9248 30.7688 40.7204 34.0831 38.3115C37.3975 35.9026 39.7039 32.7335 41.0023 28.8041L44.0262 29.4704C42.557 34.1173 39.8833 37.8673 36.0051 40.7204C32.127 43.5735 27.762 45 22.91 45ZM0.102506 20.3986C0.341686 18.0752 0.888382 15.8798 1.7426 13.8126C2.59681 11.7454 3.75854 9.82346 5.22779 8.0467L7.43166 10.2506C6.23576 11.7882 5.27904 13.4112 4.5615 15.1196C3.84396 16.828 3.38269 18.5877 3.17768 20.3986H0.102506ZM10.3018 7.38041L8.1492 5.12528C9.9943 3.62187 11.959 2.44305 14.0433 1.58884C16.1276 0.734624 18.3144 0.205011 20.6036 0V3.07517C18.8269 3.24601 17.1014 3.68166 15.4271 4.38212C13.7528 5.08257 12.0444 6.082 10.3018 7.38041ZM34.8007 7.38041C33.2631 6.15034 31.6401 5.168 29.9317 4.43337C28.2232 3.69875 26.4465 3.24601 24.6014 3.07517V0C26.9248 0.205011 29.1202 0.734624 31.1874 1.58884C33.2546 2.44305 35.1765 3.62187 36.9533 5.12528L34.8007 7.38041ZM41.9248 20.3986C41.754 18.656 41.2756 16.8964 40.4898 15.1196C39.7039 13.3428 38.6959 11.6856 37.4658 10.1481L39.6185 7.89294C41.1902 9.73804 42.4374 11.7284 43.3599 13.8639C44.2825 15.9994 44.8292 18.1777 45 20.3986H41.9248Z" fill="black"/>
<path d="M26.4137 17.2048C26.8044 16.8141 27.2878 16.6278 27.864 16.6459C28.4402 16.664 28.9363 16.8811 29.3524 17.2971C29.7684 17.7131 29.9854 18.2092 30.0035 18.7854C30.0216 19.3616 29.8353 19.845 29.4446 20.2357C29.0539 20.6264 28.5705 20.8127 27.9943 20.7946C27.4181 20.7765 26.922 20.5595 26.506 20.1434C26.09 19.7274 25.8729 19.2313 25.8548 18.6551C25.8367 18.0789 26.023 17.5955 26.4137 17.2048ZM22.5805 13.3716C23.9758 11.9764 25.6818 11.3104 27.6985 11.3737C29.7153 11.437 31.4665 12.2115 32.9522 13.6972C34.4379 15.1829 35.2124 16.9342 35.2757 18.9509C35.339 20.9676 34.6731 22.6736 33.2778 24.0689C32.2732 25.0735 31.1416 25.6999 29.8829 25.9482C28.6243 26.1966 27.2662 26.0244 25.8085 25.4318L18.3577 32.8826L13.4743 32.7293L13.5598 25.8244L16.8279 25.4089L17.2434 22.1408L20.1502 21.9083L21.2176 20.8409C20.675 19.6006 20.4909 18.3213 20.6654 17.0028C20.8399 15.6843 21.4783 14.4739 22.5805 13.3716ZM23.9177 14.7088C23.1084 15.5181 22.648 16.5505 22.5363 17.8062C22.4246 19.0619 22.7168 20.2332 23.4129 21.32L21.0269 23.7059L18.8939 23.8332L18.4561 27.079L15.3582 27.4135L15.3398 30.9531L17.5437 31.0222L25.3295 23.2365C26.3289 23.9011 27.4644 24.1994 28.7358 24.1314C30.0073 24.0633 31.0755 23.5968 31.9406 22.7317C32.9871 21.6852 33.4866 20.4057 33.4391 18.8932C33.3916 17.3807 32.8107 16.0673 31.6964 14.953C30.5821 13.8387 29.2687 13.2578 27.7562 13.2103C26.2437 13.1628 24.9642 13.6623 23.9177 14.7088Z" fill="black"/>
</svg>
